<svg id="Layer_1" data-name="Layer 1" xmlns="http://www.w3.org/2000/svg" viewBox="0 0 2591.62 1550.89"><defs><style>.cls-1{fill:#fff;}</style></defs><path d="M204.19,725.52H446.1v622.93c4.79-2.7,8.34-3.93,10.9-6.27,25.15-23,50.13-46.17,75.18-69.28,126.66-117.36,254.51-233.42,381.71-350.2q106.71-97.59,214.36-194.16c2.75-2.46,7.63-3.56,11.53-3.57,83.65.67,167.29-1.82,250.81.84-30.93,30.46-59.27,55.45-91.3,83.41C1109.81,986,920.44,1160,727.83,1333.78c35,33.88,70.45,63.82,106.8,95.57q64.17,56.73,128,113.78c86.65,79.43,175.79,156,263.27,234.54,87.65,77,171.8,154.3,259.25,232-93.74.12-186.35-1-279.93.66-21.66.39-36.3-7.46-51-20.87q-123.11-112-247.85-222.25c-140.13-123-279.8-246.45-417.72-371.89-13.1-11.78-26.68-23-42.5-36.6V2009h-242Z" transform="translate(-204.19 -724.55)"/><path d="M2564.14,1618.32c.19-219-2.38-437.23-3-656.24H2784c3.57,434,11.79,867.15,11.83,1301.28H2573.39c-3.3-209.56-3.59-419.39-3.65-629.05l-6-2.41c-120.95,126.73-244.76,250.7-366.43,376.73-83.72,85.15-166.77,171-250.73,255.89-4.65,4.65-12.82,7.93-19.45,8.09-33.36.81-66.76,0-100.13.47-41.91-.06-83.23,3.29-125.18,2.12,1.84-3.14,2.59-5.24,4-6.72,84.22-88.66,170.89-174.93,256.42-262.32q103.23-105.59,206-211.64c46.86-48.94,94.29-94.12,138.76-145.85-46.28-40.66-88.79-86-133.69-128.28-42.72-41.19-85.77-82-128.66-123C1896,1256.46,1751.57,1114.26,1601,975.08c12.78-1.64,22.61-4,32.45-4q119.44-.45,238.91.17a31.59,31.59,0,0,1,19.62,7.76c88.33,83.48,175.69,168,263.75,251.77q128.67,123,257.39,246C2463.63,1523.49,2511.34,1574.25,2564.14,1618.32Z" transform="translate(-204.19 -724.55)"/><path d="M1337.59,1675.09c134,2.13,218-81.87,295.84-175.56,4.23,23.21,9.12,43.72,11.53,64.53,5.78,50,.35,98.31-20,145.12-14.09,32.38-34.46,46.7-71.71,46.77C1471.13,1756.24,1397.93,1731.51,1337.59,1675.09Z" transform="translate(-204.19 -724.55)"/><path d="M1832.92,1511.12c-75.13-103-183.44-133.87-302.12-151.15,51.91-51.18,108.53-93.35,181.82-104.48,15.62-1.72,35.66-7.76,48.42,4.13C1824.24,1330.09,1849.37,1418.19,1832.92,1511.12Z" transform="translate(-204.19 -724.55)"/><path d="M1635.65,1739.59c60.62-115.72,32.29-225.32-11.91-335.3,3.16-.21,5.44-1,7.35-.4,64.18,18.7,123.9,46.06,166,100.1,36.52,46.91,34.29,36.58,9.52,87.93C1771.52,1663.24,1712.46,1716.28,1635.65,1739.59Z" transform="translate(-204.19 -724.55)"/><path d="M1446.24,1180.69c-62.73,107.85-32.26,229.79,16.18,338.62-86.06-24-158.17-59.57-196.46-141.51-3.35-7.15-3.54-18.11-.63-25.5,32.64-82.75,92.21-141.57,175.89-172.3C1442.05,1179.81,1443,1180.22,1446.24,1180.69Z" transform="translate(-204.19 -724.55)"/><path d="M1450.24,1420.83c-14.13-60.75-24.58-119.8-4.52-179.5,7.75-22.68,20.45-43.72,31.64-65.12,7.31-14,22.66-11.41,34.36-12.35,75.73-6.11,145.4,11.39,207,57.14a39.9,39.9,0,0,1,5.23,4.84c.56.6.56,1.71,1.18,3.79C1602.06,1245.42,1522.71,1325.14,1450.24,1420.83Z" transform="translate(-204.19 -724.55)"/><path d="M1250.61,1402.92c70.13,111.08,180.22,139.15,298.81,154.9-60.46,60.55-138.4,102.61-224.82,91.53-6.29-.66-14.08-4.45-17.8-9.35C1253.21,1570.68,1235.83,1489.27,1250.61,1402.92Z" transform="translate(-204.19 -724.55)"/><path class="cls-1" d="M1231.61,1201.81c0,4.88-2.54,8.3-6.17,8.22-8-.15-8-16.15-.11-16.34C1228.94,1193.52,1231.59,1196.93,1231.61,1201.81Z" transform="translate(-204.19 -724.55)"/></svg>